<?xml version="1.0" standalone="no"?>
<!DOCTYPE svg PUBLIC "-//W3C//DTD SVG 20010904//EN"
 "http://www.w3.org/TR/2001/REC-SVG-20010904/DTD/svg10.dtd">
<svg version="1.0" xmlns="http://www.w3.org/2000/svg"
 width="512.000000pt" height="512.000000pt" viewBox="0 0 512.000000 512.000000"
 preserveAspectRatio="xMidYMid meet">

<g transform="translate(0.000000,512.000000) scale(0.100000,-0.100000)"
fill="#000000" stroke="none">
<path d="M2380 5114 c-14 -2 -65 -9 -115 -14 -49 -6 -114 -16 -142 -21 -52
-10 -53 -11 -55 -47 l-1 -37 -4 33 c-5 41 -9 41 -175 -3 -171 -44 -284 -88
-280 -109 2 -9 -2 -16 -8 -16 -5 0 -10 5 -10 10 0 16 -13 12 -116 -36 -137
-65 -304 -163 -304 -180 0 -8 4 -14 9 -14 5 0 11 -8 15 -17 6 -21 25 -51 43
-71 7 -7 13 -17 13 -21 0 -4 8 -16 18 -27 23 -27 41 -55 48 -76 4 -10 9 -18
13 -18 4 0 15 -16 25 -35 11 -19 23 -35 28 -35 4 0 8 -4 8 -10 0 -22 -16 -8
-45 38 -16 26 -32 52 -34 57 -2 6 -7 12 -11 15 -12 9 -90 131 -90 141 0 5 -4
9 -8 9 -4 0 -16 14 -25 30 -10 17 -23 30 -29 30 -28 0 -358 -269 -358 -292 0
-5 63 -73 141 -150 77 -77 139 -142 136 -145 -3 -2 -68 59 -145 136 -77 78
-146 141 -154 141 -7 0 -22 -10 -32 -22 -11 -13 -51 -58 -89 -101 -71 -79
-177 -216 -177 -229 0 -4 15 -17 33 -29 17 -13 34 -27 35 -31 2 -4 7 -8 12 -8
9 0 132 -79 140 -90 3 -4 10 -9 15 -11 25 -10 105 -65 105 -72 0 -8 -83 44
-88 56 -2 4 -7 7 -12 7 -11 0 -134 82 -138 93 -2 4 -8 7 -13 7 -4 0 -28 14
-53 31 -24 17 -48 29 -54 26 -34 -21 -228 -384 -219 -410 2 -6 -5 -18 -15 -27
-36 -30 -163 -430 -139 -438 16 -5 13 -22 -4 -22 -15 0 -16 -4 -34 -105 -93
-527 -20 -1057 213 -1548 122 -256 285 -488 496 -708 72 -74 384 -329 404
-329 2 0 42 -23 88 -52 232 -144 570 -270 878 -327 89 -17 350 -41 440 -41 90
0 351 24 440 41 308 57 646 183 878 327 46 29 86 52 88 52 19 0 334 257 404
329 375 387 622 865 709 1376 44 252 52 543 22 735 -6 36 -16 99 -22 140 -31
199 -112 450 -213 663 -58 122 -159 298 -194 340 -15 17 -48 23 -54 10 -5 -13
-76 -63 -87 -63 -6 0 -11 -4 -11 -9 0 -5 -10 -13 -22 -17 -13 -4 -25 -9 -28
-13 -9 -11 -79 -61 -85 -61 -4 0 -13 -7 -21 -15 -9 -8 -20 -15 -26 -15 -6 0
-1 9 12 20 13 11 29 20 36 20 7 0 14 3 16 8 5 11 75 62 86 62 6 0 12 3 14 8 2
4 33 27 71 52 37 25 67 47 67 50 0 13 -98 140 -165 215 -39 44 -84 95 -100
113 -16 17 -33 32 -39 32 -6 0 -79 -69 -163 -152 -84 -84 -153 -148 -153 -143
0 6 68 77 151 159 l150 150 -58 54 c-63 58 -262 211 -305 233 -14 8 -68 39
-120 70 -98 59 -273 145 -317 156 -14 3 -30 9 -36 13 -26 18 -152 61 -265 90
-237 60 -386 80 -620 85 -107 2 -206 2 -220 -1z m650 -89 c0 -14 -4 -25 -10
-25 -11 0 -14 33 -3 43 11 11 13 8 13 -18z m-940 -87 c0 -23 -3 -29 -9 -19 -8
12 -4 51 5 51 2 0 4 -15 4 -32z m917 -15 c-3 -10 -5 -2 -5 17 0 19 2 27 5 18
2 -10 2 -26 0 -35z m493 -12 c0 -6 -4 -13 -10 -16 -5 -3 -10 -16 -10 -28 0
-14 -3 -18 -10 -11 -7 7 -6 19 2 37 13 26 28 36 28 18z m-1883 -53 c-3 -7 -5
-2 -5 12 0 14 2 19 5 13 2 -7 2 -19 0 -25z m493 -9 c0 -17 -4 -28 -10 -24 -5
3 -10 17 -10 31 0 13 5 24 10 24 6 0 10 -14 10 -31z m877 -16 c-3 -10 -5 -2
-5 17 0 19 2 27 5 18 2 -10 2 -26 0 -35z m-1347 -3 c0 -5 -4 -10 -10 -10 -5 0
-10 5 -10 10 0 6 5 10 10 10 6 0 10 -4 10 -10z m1817 -12 c-3 -8 -6 -5 -6 6
-1 11 2 17 5 13 3 -3 4 -12 1 -19z m-1802 -27 c3 -5 1 -12 -5 -16 -5 -3 -10 1
-10 9 0 18 6 21 15 7z m462 -28 c-3 -10 -5 -4 -5 12 0 17 2 24 5 18 2 -7 2
-21 0 -30z m220 -40 c-2 -16 -4 -3 -4 27 0 30 2 43 4 28 2 -16 2 -40 0 -55z
m1113 68 c0 -6 -4 -13 -10 -16 -5 -3 -10 1 -10 9 0 9 5 16 10 16 6 0 10 -4 10
-9z m-690 -48 c0 -35 -3 -44 -10 -33 -16 25 -11 80 7 80 2 0 3 -21 3 -47z
m220 27 c0 -11 -4 -20 -10 -20 -5 0 -10 9 -10 20 0 11 5 20 10 20 6 0 10 -9
10 -20z m-1070 -26 c0 -8 -4 -14 -10 -14 -5 0 -10 9 -10 21 0 11 5 17 10 14 6
-3 10 -13 10 -21z m1282 -6 c-9 -9 -12 -7 -12 12 0 19 3 21 12 12 9 -9 9 -15
0 -24z m-1525 0 c-3 -8 -6 -5 -6 6 -1 11 2 17 5 13 3 -3 4 -12 1 -19z m1763 6
c0 -8 -4 -12 -10 -9 -5 3 -10 10 -10 16 0 5 5 9 10 9 6 0 10 -7 10 -16z
m-1740 -40 c0 -8 -4 -12 -10 -9 -5 3 -10 10 -10 16 0 5 5 9 10 9 6 0 10 -7 10
-16z m227 -16 c-3 -7 -5 -2 -5 12 0 14 2 19 5 13 2 -7 2 -19 0 -25z m220 -15
c-3 -10 -5 -2 -5 17 0 19 2 27 5 18 2 -10 2 -26 0 -35z m1270 25 c-3 -8 -6 -5
-6 6 -1 11 2 17 5 13 3 -3 4 -12 1 -19z m-447 -15 c0 -21 -3 -24 -9 -14 -5 8
-7 20 -4 28 8 21 13 15 13 -14z m220 12 c0 -8 -4 -15 -10 -15 -5 0 -10 7 -10
15 0 8 5 15 10 15 6 0 10 -7 10 -15z m-1470 -36 c0 -5 -4 -9 -10 -9 -5 0 -10
7 -10 16 0 8 5 12 10 9 6 -3 10 -10 10 -16z m1685 12 c3 -5 1 -12 -5 -16 -5
-3 -10 1 -10 9 0 18 6 21 15 7z m-1455 -33 c0 -18 -2 -20 -9 -8 -6 8 -7 18 -5
22 9 14 14 9 14 -14z m1217 -10 c-3 -7 -5 -2 -5 12 0 14 2 19 5 13 2 -7 2 -19
0 -25z m731 2 c-7 -10 -14 -18 -15 -16 -6 6 9 36 18 36 5 0 4 -9 -3 -20z
m-2171 -12 c-3 -8 -6 -5 -6 6 -1 11 2 17 5 13 3 -3 4 -12 1 -19z m1663 6 c0
-8 -5 -12 -10 -9 -6 4 -8 11 -5 16 9 14 15 11 15 -7z m223 -34 c-5 -19 -23
-29 -23 -12 0 7 20 32 26 32 1 0 0 -9 -3 -20z m-2086 -43 c-3 -7 -6 -5 -6 6
-1 9 -5 17 -11 17 -5 0 -10 8 -10 17 0 14 3 13 16 -5 8 -12 13 -28 11 -35z
m223 37 c0 -8 -4 -12 -10 -9 -5 3 -10 10 -10 16 0 5 5 9 10 9 6 0 10 -7 10
-16z m1617 -6 c-3 -8 -6 -5 -6 6 -1 11 2 17 5 13 3 -3 4 -12 1 -19z m492 -10
c-13 -18 -27 -34 -31 -36 -4 -2 -8 -7 -8 -12 0 -9 -79 -132 -90 -140 -4 -3
-10 -12 -13 -20 -4 -13 -6 -12 -6 1 -1 9 6 22 14 29 8 7 15 18 15 25 0 8 4 15
8 17 4 2 32 40 62 85 30 46 59 83 63 83 5 0 -2 -15 -14 -32z m-2094 -18 c3 -5
1 -10 -4 -10 -6 0 -11 5 -11 10 0 6 2 10 4 10 3 0 8 -4 11 -10z m1590 0 c3 -5
1 -10 -4 -10 -6 0 -11 5 -11 10 0 6 2 10 4 10 3 0 8 -4 11 -10z m-1805 -30 c0
-5 -2 -10 -4 -10 -3 0 -8 5 -11 10 -3 6 -1 10 4 10 6 0 11 -4 11 -10z m20 -30
c0 -5 -4 -10 -10 -10 -5 0 -10 5 -10 10 0 6 5 10 10 10 6 0 10 -4 10 -10z
m1990 0 c0 -5 -4 -10 -10 -10 -5 0 -10 5 -10 10 0 6 5 10 10 10 6 0 10 -4 10
-10z m-2356 -213 c16 -21 26 -40 22 -44 -3 -3 -6 -2 -6 3 0 6 -8 19 -18 30
-10 10 -31 37 -47 59 -24 33 -24 36 -4 15 14 -14 37 -42 53 -63z m2765 66 c-8
-10 -22 -27 -33 -38 -10 -11 -25 -30 -33 -42 -9 -13 -20 -23 -25 -23 -12 0 83
119 96 119 5 1 2 -7 -5 -16z m-1174 -74 c5 -5 26 -9 46 -9 21 0 40 -4 43 -9 3
-4 27 -11 53 -15 60 -8 125 -30 116 -39 -3 -4 -13 -7 -20 -7 -8 0 -82 -67
-165 -150 -83 -82 -157 -150 -164 -150 -8 0 -14 -4 -14 -10 0 -5 -14 -10 -31
-10 -30 0 -31 2 -25 31 5 27 4 28 -9 15 -20 -20 -20 -76 1 -76 8 0 13 4 10 9
-3 5 17 11 44 15 28 4 50 11 50 16 0 6 9 10 21 10 11 0 17 5 14 10 -3 6 3 10
14 10 11 0 26 7 35 15 8 8 20 15 26 15 6 0 8 5 5 10 -4 6 8 10 29 10 20 0 36
-3 36 -8 0 -4 20 -16 45 -27 25 -11 45 -23 45 -27 0 -5 7 -8 15 -8 8 0 15 -4
15 -10 0 -5 6 -10 14 -10 8 0 21 -6 28 -12 15 -14 24 -19 131 -77 41 -23 84
-41 96 -41 11 0 21 -4 21 -8 0 -4 34 -13 76 -19 83 -12 89 -15 81 -38 -5 -12
-25 -15 -97 -15 -53 0 -90 -4 -90 -10 0 -13 -63 -13 -75 -1 -6 5 -111 12 -235
15 -143 3 -226 9 -228 16 -2 5 -25 10 -50 10 -26 0 -56 7 -66 15 -11 8 -22 15
-25 15 -3 0 -7 -51 -8 -112 -1 -62 -5 -164 -8 -225 -6 -98 -5 -113 9 -113 8 0
17 4 20 9 4 5 29 12 56 16 27 4 52 11 56 16 3 5 18 9 34 9 16 0 32 5 35 10 3
6 15 10 25 10 11 0 38 7 60 16 35 14 40 20 40 50 0 48 -29 64 -112 64 -52 0
-77 6 -112 24 -68 36 -100 76 -61 76 8 0 15 4 15 9 0 5 24 11 53 14 28 3 65 8
80 12 25 7 68 -6 87 -25 3 -3 21 -14 40 -24 19 -11 52 -37 73 -59 33 -36 37
-45 37 -93 0 -30 -4 -54 -10 -54 -5 0 -10 -6 -10 -13 0 -29 -58 -69 -155 -107
-36 -14 -144 -40 -167 -40 -21 0 -20 -2 9 -32 27 -29 40 -51 74 -120 12 -24
11 -95 -1 -103 -5 -3 -10 -13 -10 -22 0 -18 -66 -86 -94 -96 -17 -7 -14 -12
23 -50 52 -53 71 -89 71 -137 0 -68 -46 -126 -150 -190 -12 -8 -12 -11 1 -27
44 -51 67 -153 34 -153 -9 0 -15 9 -15 23 0 12 -10 38 -23 57 l-22 35 -5 -70
c-4 -62 -7 -70 -25 -70 -18 0 -21 8 -25 70 -5 67 -6 69 -20 45 -8 -14 -19 -38
-25 -54 -5 -16 -16 -32 -24 -34 -24 -8 -7 79 24 126 15 23 26 44 24 45 -141
102 -169 143 -154 225 7 39 42 92 85 129 24 21 24 22 5 29 -29 11 -75 55 -91
86 -35 67 -8 190 57 256 l29 30 -60 7 c-33 4 -63 11 -66 16 -3 5 -18 9 -35 9
-16 0 -29 5 -29 10 0 6 -11 10 -24 10 -14 0 -28 5 -31 10 -4 6 -11 8 -16 5 -5
-4 -9 -1 -9 6 0 6 -8 9 -19 6 -14 -3 -18 -1 -14 9 3 8 -2 17 -11 20 -9 3 -16
13 -16 21 0 8 -4 12 -9 9 -9 -6 -21 40 -21 85 0 16 -4 29 -10 29 -5 0 -10 -18
-10 -40 0 -22 5 -40 10 -40 6 0 10 -8 10 -19 0 -10 7 -24 15 -31 20 -17 19
-20 -16 -59 -26 -26 -29 -35 -18 -42 10 -6 6 -9 -14 -9 -24 0 -27 -3 -22 -20
5 -17 2 -20 -21 -20 -22 0 -25 -2 -14 -15 11 -13 8 -15 -14 -15 -27 0 -35 -15
-13 -23 6 -3 -1 -6 -16 -6 -24 -1 -27 -4 -22 -21 5 -17 2 -20 -21 -20 -22 0
-25 -2 -14 -15 11 -13 8 -15 -14 -15 -14 0 -26 -4 -26 -10 0 -5 5 -10 11 -10
5 0 8 -4 5 -9 -3 -5 -16 -7 -27 -4 -18 5 -20 3 -14 -16 5 -18 2 -21 -21 -21
-22 0 -25 -2 -14 -15 11 -13 8 -15 -14 -15 -14 0 -26 -4 -26 -10 0 -5 5 -10
11 -10 5 0 8 -4 5 -9 -3 -5 -16 -7 -27 -4 -18 5 -20 3 -14 -16 5 -18 2 -21
-21 -21 -22 0 -25 -2 -14 -15 11 -13 8 -15 -14 -15 -14 0 -26 -4 -26 -10 0 -5
5 -10 11 -10 5 0 7 -5 4 -10 -4 -6 -16 -8 -27 -4 -17 5 -19 3 -13 -15 5 -18 2
-21 -21 -21 -22 0 -25 -2 -14 -15 11 -13 8 -15 -14 -15 -23 0 -26 -3 -21 -20
4 -11 3 -20 -2 -19 -18 3 -47 -3 -35 -8 21 -8 13 -23 -13 -23 -14 0 -25 -4
-25 -10 0 -5 5 -10 11 -10 8 0 8 -5 -1 -15 -9 -11 -9 -15 -1 -15 7 0 9 -5 6
-11 -5 -6 -12 -4 -20 8 -7 10 -17 15 -21 10 -4 -4 -2 -7 6 -7 10 0 10 -3 0
-15 -8 -9 -21 -13 -34 -10 -16 5 -18 4 -7 -4 12 -7 12 -12 2 -24 -6 -8 -8 -17
-4 -19 4 -3 3 -3 -4 -2 -6 2 -17 -4 -23 -12 -10 -11 -10 -14 -1 -14 7 0 9 -5
5 -11 -5 -8 -10 -6 -16 5 -12 21 -26 21 -24 -1 1 -13 -5 -17 -23 -15 -19 2
-22 0 -12 -12 9 -11 9 -16 0 -21 -8 -6 -7 -10 2 -17 11 -8 10 -9 -2 -5 -21 7
-39 -11 -32 -32 4 -13 2 -13 -7 2 -14 22 -28 22 -26 0 1 -13 -5 -17 -23 -15
-19 2 -22 0 -12 -12 9 -11 9 -16 0 -21 -8 -6 -7 -10 2 -17 11 -8 10 -9 -3 -5
-9 3 -22 0 -28 -8 -6 -8 -17 -12 -25 -9 -8 3 -12 -1 -12 -13 2 -14 -4 -17 -23
-15 -19 2 -22 0 -12 -10 9 -9 6 -18 -14 -39 -15 -15 -32 -25 -39 -23 -8 3 -12
-2 -12 -13 2 -13 -4 -17 -22 -15 -19 2 -21 0 -12 -12 8 -10 8 -16 -2 -25 -8
-6 -16 -8 -20 -5 -3 3 -4 -14 -3 -38 2 -24 1 -33 -1 -20 -2 12 -9 22 -14 22
-5 0 -9 11 -9 24 0 14 -4 27 -9 30 -5 3 -12 33 -16 66 -4 33 -11 60 -16 60 -5
0 -9 20 -9 44 0 25 -4 47 -8 50 -14 8 -21 249 -12 371 9 107 22 204 35 255 4
14 9 39 12 55 3 17 9 35 13 40 4 6 11 26 15 45 4 19 11 41 15 50 4 8 12 26 18
40 66 156 138 284 231 405 192 252 463 450 743 541 46 15 92 30 103 34 72 26
203 49 335 59 115 9 361 2 375 -10z m325 -83 c0 -2 -13 -6 -30 -8 -16 -3 -30
-1 -30 4 0 4 14 8 30 8 17 0 30 -2 30 -4z m37 -22 c-3 -3 -12 -4 -19 -1 -8 3
-5 6 6 6 11 1 17 -2 13 -5z m-117 -24 c0 -5 -4 -10 -10 -10 -5 0 -10 5 -10 10
0 6 5 10 10 10 6 0 10 -4 10 -10z m-2126 -162 c11 -10 24 -18 30 -18 5 0 6 -3
3 -6 -7 -7 -65 34 -107 75 -21 20 -18 20 15 -4 22 -16 49 -37 59 -47z m2026
62 c0 -5 -4 -10 -10 -10 -5 0 -10 5 -10 10 0 6 5 10 10 10 6 0 10 -4 10 -10z
m1281 -50 c-41 -37 -80 -58 -47 -25 8 8 17 15 21 15 3 0 17 11 31 25 14 14 28
25 32 25 4 -1 -13 -19 -37 -40z m93 -194 c-10 -8 -21 -12 -24 -10 -5 6 21 24
34 24 6 0 1 -6 -10 -14z m-3704 -126 c0 -5 8 -10 18 -11 10 0 12 -3 5 -6 -7
-2 -23 3 -35 11 -18 13 -19 16 -5 16 9 0 17 -4 17 -10z m3870 -17 c-8 -3 -18
-11 -22 -17 -4 -6 -10 -7 -15 -3 -9 10 16 27 37 26 13 -1 13 -1 0 -6z m-3815
-13 c3 -5 1 -10 -4 -10 -6 0 -11 5 -11 10 0 6 2 10 4 10 3 0 8 -4 11 -10z m35
-20 c0 -5 -2 -10 -4 -10 -3 0 -8 5 -11 10 -3 6 -1 10 4 10 6 0 11 -4 11 -10z
m3730 6 c0 -3 -4 -8 -10 -11 -5 -3 -10 -1 -10 4 0 6 5 11 10 11 6 0 10 -2 10
-4z m460 -36 c0 -5 -7 -10 -16 -10 -8 0 -12 5 -9 10 3 6 10 10 16 10 5 0 9 -4
9 -10z m-4610 -20 c0 -5 -2 -10 -4 -10 -3 0 -8 5 -11 10 -3 6 -1 10 4 10 6 0
11 -4 11 -10z m4570 6 c0 -11 -19 -15 -25 -6 -3 5 1 10 9 10 9 0 16 -2 16 -4z
m-4527 -23 c-7 -2 -19 -2 -25 0 -7 3 -2 5 12 5 14 0 19 -2 13 -5z m4484 1 c-3
-3 -12 -4 -19 -1 -8 3 -5 6 6 6 11 1 17 -2 13 -5z m-4447 -14 c0 -5 -4 -10
-10 -10 -5 0 -10 5 -10 10 0 6 5 10 10 10 6 0 10 -4 10 -10z m4410 0 c0 -5 -7
-10 -16 -10 -8 0 -12 5 -9 10 3 6 10 10 16 10 5 0 9 -4 9 -10z m-4360 -14 c0
-11 -19 -15 -25 -6 -3 5 1 10 9 10 9 0 16 -2 16 -4z m4320 0 c0 -11 -19 -15
-25 -6 -3 5 1 10 9 10 9 0 16 -2 16 -4z m-4283 -22 c-3 -3 -12 -4 -19 -1 -8 3
-5 6 6 6 11 1 17 -2 13 -5z m4240 0 c-3 -3 -12 -4 -19 -1 -8 3 -5 6 6 6 11 1
17 -2 13 -5z m-4202 -14 c3 -5 -1 -10 -9 -10 -9 0 -16 5 -16 10 0 6 4 10 9 10
6 0 13 -4 16 -10z m4160 0 c3 -5 -3 -10 -14 -10 -11 0 -23 -4 -26 -10 -7 -12
-25 -13 -25 -2 0 7 35 28 52 31 4 0 10 -3 13 -9z m-4115 -14 c0 -11 -19 -15
-25 -6 -3 5 1 10 9 10 9 0 16 -2 16 -4z m37 -22 c-3 -3 -12 -4 -19 -1 -8 3 -5
6 6 6 11 1 17 -2 13 -5z m4000 0 c-3 -3 -12 -4 -19 -1 -8 3 -5 6 6 6 11 1 17
-2 13 -5z m-3962 -14 c3 -5 -1 -10 -9 -10 -9 0 -16 5 -16 10 0 6 4 10 9 10 6
0 13 -4 16 -10z m3925 0 c0 -5 -7 -10 -16 -10 -8 0 -12 5 -9 10 3 6 10 10 16
10 5 0 9 -4 9 -10z m-3890 -20 c0 -5 -2 -10 -4 -10 -3 0 -8 5 -11 10 -3 6 -1
10 4 10 6 0 11 -4 11 -10z m3850 6 c0 -11 -19 -15 -25 -6 -3 5 1 10 9 10 9 0
16 -2 16 -4z m-4040 -156 c0 -5 -6 -10 -14 -10 -8 0 -18 5 -21 10 -3 6 3 10
14 10 12 0 21 -4 21 -10z m4245 0 c-3 -5 -13 -10 -21 -10 -8 0 -14 5 -14 10 0
6 9 10 21 10 11 0 17 -4 14 -10z m-4202 -17 c-7 -2 -19 -2 -25 0 -7 3 -2 5 12
5 14 0 19 -2 13 -5z m4140 0 c-7 -2 -19 -2 -25 0 -7 3 -2 5 12 5 14 0 19 -2
13 -5z m-4073 -19 c0 -2 -9 -4 -21 -4 -11 0 -18 4 -14 10 5 8 35 3 35 -6z
m4025 6 c3 -5 -3 -10 -15 -10 -12 0 -18 5 -15 10 3 6 10 10 15 10 5 0 12 -4
15 -10z m-2515 -64 c0 -3 -4 -8 -10 -11 -5 -3 -10 -1 -10 4 0 6 5 11 10 11 6
0 10 -2 10 -4z m2970 -56 c0 -5 -7 -10 -15 -10 -8 0 -15 5 -15 10 0 6 7 10 15
10 8 0 15 -4 15 -10z m-4867 -17 c-7 -2 -21 -2 -30 0 -10 3 -4 5 12 5 17 0 24
-2 18 -5z m4795 0 c-10 -2 -26 -2 -35 0 -10 3 -2 5 17 5 19 0 27 -2 18 -5z
m-4708 -13 c11 -7 6 -10 -20 -10 -26 0 -31 3 -20 10 8 5 17 10 20 10 3 0 12
-5 20 -10z m4620 0 c12 -8 9 -10 -13 -10 -16 0 -26 4 -22 10 8 12 16 12 35 0z
m-4525 -20 c4 -6 -7 -10 -24 -10 -17 0 -31 5 -31 10 0 6 11 10 24 10 14 0 28
-4 31 -10z m1615 6 c0 -3 -4 -8 -10 -11 -5 -3 -10 -1 -10 4 0 6 5 11 10 11 6
0 10 -2 10 -4z m2835 -6 c-3 -5 -17 -10 -31 -10 -13 0 -24 5 -24 10 0 6 14 10
31 10 17 0 28 -4 24 -10z m-4382 -17 c-7 -2 -21 -2 -30 0 -10 3 -4 5 12 5 17
0 24 -2 18 -5z m4295 0 c-10 -2 -26 -2 -35 0 -10 3 -2 5 17 5 19 0 27 -2 18
-5z m-4198 -19 c0 -2 -15 -4 -32 -3 -27 0 -29 2 -13 8 18 8 45 4 45 -5z m4120
0 c0 -2 -12 -4 -27 -4 -21 0 -24 3 -14 9 13 8 41 5 41 -5z m-2770 -58 c0 -3
-4 -8 -10 -11 -5 -3 -10 -1 -10 4 0 6 5 11 10 11 6 0 10 -2 10 -4z m-1417
-143 c-13 -2 -35 -2 -50 0 -16 2 -5 4 22 4 28 0 40 -2 28 -4z m4260 0 c-13 -2
-35 -2 -50 0 -16 2 -5 4 22 4 28 0 40 -2 28 -4z m-4243 -413 c11 -7 2 -10 -33
-10 -30 0 -46 4 -42 10 8 13 55 13 75 0z m4245 0 c4 -6 -12 -10 -40 -10 -28 0
-44 4 -40 10 3 6 21 10 40 10 19 0 37 -4 40 -10z m-4200 -200 c4 -6 -6 -10
-22 -10 -22 0 -25 2 -13 10 19 12 27 12 35 0z m4115 0 c12 -8 9 -10 -13 -10
-16 0 -26 4 -22 10 8 12 16 12 35 0z m-4200 -20 c0 -5 -9 -10 -20 -10 -11 0
-20 5 -20 10 0 6 9 10 20 10 11 0 20 -4 20 -10z m4290 0 c0 -5 -9 -10 -19 -10
-11 0 -23 5 -26 10 -4 6 5 10 19 10 14 0 26 -4 26 -10z m-4372 -17 c-10 -2
-26 -2 -35 0 -10 3 -2 5 17 5 19 0 27 -2 18 -5z m4450 0 c-10 -2 -26 -2 -35 0
-10 3 -2 5 17 5 19 0 27 -2 18 -5z m-4528 -19 c0 -2 -15 -4 -32 -3 -27 0 -29
2 -13 8 18 8 45 4 45 -5z m1250 5 c0 -6 13 -29 29 -52 16 -23 46 -88 67 -145
l38 -103 17 43 c10 24 18 51 18 61 1 9 4 17 9 17 4 0 16 28 27 63 10 34 22 69
26 77 4 8 10 23 13 34 5 16 9 16 23 5 9 -8 22 -29 30 -47 7 -18 17 -30 22 -28
5 3 11 -11 14 -32 4 -20 18 -91 32 -157 14 -66 29 -140 34 -165 5 -25 13 -53
16 -62 5 -12 1 -20 -9 -24 -10 -4 -29 8 -55 33 -36 37 -53 71 -66 136 -3 15
-9 27 -13 27 -4 0 -19 -32 -32 -71 -14 -39 -28 -73 -32 -76 -5 -2 -8 -12 -8
-22 0 -38 -22 -42 -54 -8 -35 36 -47 59 -95 182 l-20 50 -1 -35 c-1 -38 -33
-191 -44 -209 -10 -16 -46 -13 -46 4 0 8 -7 15 -15 15 -8 0 -15 9 -15 20 0 13
-7 20 -20 20 -22 0 -25 11 -11 38 10 19 31 117 38 177 3 22 9 44 14 50 5 5 9
18 9 30 0 18 23 120 35 153 5 15 25 16 25 1z m1033 -19 c10 -16 24 -36 32 -44
12 -12 165 -372 182 -428 9 -29 -26 -22 -59 12 -15 17 -33 30 -38 30 -5 0 -12
11 -16 25 -6 24 -10 25 -81 25 l-74 0 -24 -55 c-18 -40 -30 -55 -45 -55 -11 0
-19 6 -18 12 2 7 -7 14 -19 16 -14 2 -20 8 -16 18 8 20 -41 18 -58 -3 -41 -49
-154 -67 -221 -35 -48 22 -129 97 -163 151 -23 37 -27 54 -27 116 1 60 5 79
27 116 15 24 46 58 68 74 39 28 49 30 126 30 59 0 86 -4 89 -12 2 -7 9 -13 16
-13 24 0 136 -137 136 -167 0 -24 -31 -14 -80 28 -66 56 -120 63 -185 25 -54
-32 -85 -86 -85 -149 0 -54 16 -76 60 -86 63 -14 108 -2 152 40 41 39 88 52
88 25 0 -8 7 -16 15 -20 8 -3 12 -12 9 -20 -3 -8 -1 -17 4 -20 8 -5 52 71 52
90 0 3 7 21 15 40 13 30 29 67 55 129 4 11 15 36 24 57 9 20 16 42 16 50 0 15
9 28 20 28 3 0 14 -13 23 -30z m2327 20 c12 -8 9 -10 -13 -10 -16 0 -26 4 -22
10 8 12 16 12 35 0z m-4700 -20 c0 -5 -12 -10 -26 -10 -14 0 -23 4 -19 10 3 6
15 10 26 10 10 0 19 -4 19 -10z m2815 -17 l7 -28 16 22 c22 29 122 45 122 20
0 -9 6 -20 13 -24 32 -21 37 -53 37 -258 0 -200 0 -205 -21 -205 -11 0 -18 4
-14 9 3 5 -4 12 -15 16 -11 3 -20 12 -20 20 0 7 -9 15 -20 18 -19 5 -20 14
-20 171 0 153 -2 168 -20 186 -11 11 -25 20 -32 20 -9 0 -9 -3 0 -12 7 -7 12
-20 12 -30 0 -15 -9 -18 -50 -18 l-50 0 0 -190 c0 -183 -1 -190 -20 -190 -11
0 -20 7 -20 15 0 8 -7 15 -15 15 -8 0 -15 7 -15 15 0 8 -9 15 -20 15 -19 0
-20 7 -20 165 0 142 -2 164 -15 159 -9 -4 -15 0 -15 9 0 8 -9 17 -21 20 -12 3
-18 10 -14 16 3 7 -2 11 -14 11 -15 0 -21 6 -21 23 0 13 3 27 7 30 3 4 61 7
129 7 l122 0 7 -27z m460 -26 c66 -71 90 -136 88 -242 -2 -139 -46 -205 -139
-205 -43 0 -50 4 -109 63 -59 59 -64 67 -80 140 -16 74 -16 81 0 153 15 63 24
80 57 109 32 30 45 35 85 35 44 0 51 -4 98 -53z m231 13 c9 -22 20 -40 25 -40
5 0 9 -94 9 -210 0 -205 0 -210 -21 -210 -11 0 -18 4 -14 9 3 5 -4 12 -15 16
-11 3 -20 13 -20 21 0 8 -7 14 -15 14 -13 0 -15 26 -15 175 0 104 -4 175 -9
175 -6 0 -22 11 -37 25 -44 40 -25 56 74 63 17 2 26 -7 38 -38z m1284 30 c0
-5 -9 -10 -20 -10 -11 0 -20 5 -20 10 0 6 9 10 20 10 11 0 20 -4 20 -10z
m-4877 -17 c-7 -2 -19 -2 -25 0 -7 3 -2 5 12 5 14 0 19 -2 13 -5z m4947 -3 c0
-5 -7 -7 -15 -4 -8 4 -15 8 -15 10 0 2 7 4 15 4 8 0 15 -4 15 -10z m-4487
-117 c-7 -2 -19 -2 -25 0 -7 3 -2 5 12 5 14 0 19 -2 13 -5z m4030 0 c-7 -2
-19 -2 -25 0 -7 3 -2 5 12 5 14 0 19 -2 13 -5z m-4083 -13 c0 -5 -7 -10 -15
-10 -8 0 -15 5 -15 10 0 6 7 10 15 10 8 0 15 -4 15 -10z m4135 0 c3 -5 -1 -10
-9 -10 -9 0 -16 5 -16 10 0 6 4 10 9 10 6 0 13 -4 16 -10z m-4193 -22 c-9 -9
-15 -9 -24 0 -9 9 -7 12 12 12 19 0 21 -3 12 -12z m4248 8 c0 -11 -19 -15 -25
-6 -3 5 1 10 9 10 9 0 16 -2 16 -4z m-4050 -156 c0 -5 -2 -10 -4 -10 -3 0 -8
5 -11 10 -3 6 -1 10 4 10 6 0 11 -4 11 -10z m3840 0 c0 -5 -2 -10 -4 -10 -3 0
-8 5 -11 10 -3 6 -1 10 4 10 6 0 11 -4 11 -10z m-3873 -16 c-3 -3 -12 -4 -19
-1 -8 3 -5 6 6 6 11 1 17 -2 13 -5z m3920 0 c-3 -3 -12 -4 -19 -1 -8 3 -5 6 6
6 11 1 17 -2 13 -5z m-3962 -14 c3 -5 -1 -10 -10 -10 -9 0 -13 5 -10 10 3 6 8
10 10 10 2 0 7 -4 10 -10z m4000 0 c3 -5 -1 -10 -9 -10 -9 0 -16 5 -16 10 0 6
4 10 9 10 6 0 13 -4 16 -10z m-4035 -14 c0 -11 -19 -15 -25 -6 -3 5 1 10 9 10
9 0 16 -2 16 -4z m4077 -2 c-3 -3 -12 -4 -19 -1 -8 3 -5 6 6 6 11 1 17 -2 13
-5z m-4120 -20 c-3 -3 -12 -4 -19 -1 -8 3 -5 6 6 6 11 1 17 -2 13 -5z m4160 0
c-3 -3 -12 -4 -19 -1 -8 3 -5 6 6 6 11 1 17 -2 13 -5z m-4202 -14 c3 -5 -1
-10 -9 -10 -9 0 -16 5 -16 10 0 6 4 10 9 10 6 0 13 -4 16 -10z m4240 0 c3 -5
-1 -10 -9 -10 -9 0 -16 5 -16 10 0 6 4 10 9 10 6 0 13 -4 16 -10z m-4280 -20
c-3 -5 -10 -10 -16 -10 -5 0 -9 5 -9 10 0 6 7 10 16 10 8 0 12 -4 9 -10z
m4325 6 c0 -11 -19 -15 -25 -6 -3 5 1 10 9 10 9 0 16 -2 16 -4z m-4363 -22
c-3 -3 -12 -4 -19 -1 -8 3 -5 6 6 6 11 1 17 -2 13 -5z m4400 0 c-3 -3 -12 -4
-19 -1 -8 3 -5 6 6 6 11 1 17 -2 13 -5z m-4442 -14 c3 -5 -1 -10 -9 -10 -9 0
-16 5 -16 10 0 6 4 10 9 10 6 0 13 -4 16 -10z m4480 0 c3 -5 -1 -10 -9 -10 -9
0 -16 5 -16 10 0 6 4 10 9 10 6 0 13 -4 16 -10z m-4520 -20 c-3 -5 -10 -10
-16 -10 -5 0 -9 5 -9 10 0 6 7 10 16 10 8 0 12 -4 9 -10z m4565 0 c0 -5 -4
-10 -9 -10 -6 0 -13 5 -16 10 -3 6 1 10 9 10 9 0 16 -4 16 -10z m-4603 -16
c-3 -3 -12 -4 -19 -1 -8 3 -5 6 6 6 11 1 17 -2 13 -5z m4640 0 c-3 -3 -12 -4
-19 -1 -8 3 -5 6 6 6 11 1 17 -2 13 -5z m-457 -36 c0 -5 8 -8 17 -8 9 0 13 -3
9 -7 -8 -8 -76 26 -76 38 0 4 11 2 25 -4 14 -7 25 -15 25 -19z m-3730 8 c0 -3
-4 -8 -10 -11 -5 -3 -10 -1 -10 4 0 6 5 11 10 11 6 0 10 -2 10 -4z m3820 -58
c0 -12 -13 -9 -32 6 -26 19 -22 26 7 13 14 -7 25 -15 25 -19z m-3910 3 c0 -5
-9 -11 -21 -14 -16 -4 -18 -3 -8 9 13 16 29 19 29 5z m210 -118 c-8 -3 -17 -9
-20 -12 -6 -8 -131 -91 -137 -91 -2 0 -13 -9 -25 -20 -12 -11 -24 -18 -26 -15
-7 6 40 44 56 45 6 0 12 3 12 8 0 4 16 16 35 26 19 11 35 23 35 28 0 4 6 8 14
8 7 0 19 7 26 15 7 8 20 15 29 14 13 0 14 -2 1 -6z m3518 -20 c20 -16 39 -31
42 -34 3 -4 15 -9 28 -13 12 -4 22 -12 22 -17 0 -5 5 -9 11 -9 11 0 82 -50 87
-62 2 -5 9 -8 16 -8 7 0 23 -9 36 -20 13 -11 18 -20 12 -20 -6 0 -17 7 -26 15
-8 8 -17 15 -21 15 -6 0 -76 50 -85 61 -3 4 -15 9 -27 13 -13 4 -23 12 -23 17
0 5 -5 9 -11 9 -9 0 -77 46 -89 61 -3 3 -12 9 -20 12 -10 4 -11 6 -2 6 7 1 30
-11 50 -26z m-3738 -127 c0 -3 -4 -8 -10 -11 -5 -3 -10 -1 -10 4 0 6 5 11 10
11 6 0 10 -2 10 -4z m315 -40 c-17 -13 -43 -35 -60 -50 -16 -14 -31 -23 -33
-21 -3 2 11 17 29 32 18 15 45 38 59 50 14 12 27 19 30 17 2 -3 -9 -16 -25
-28z m3313 -18 c18 -15 32 -30 32 -33 0 -4 -19 10 -42 29 -23 20 -45 36 -50
36 -4 0 -8 5 -8 11 0 11 17 0 68 -43z m-3681 22 c-14 -11 -31 -20 -39 -19 -9
0 -9 2 2 6 8 4 21 12 28 20 7 7 18 13 24 13 6 0 -1 -9 -15 -20z m4103 -52 c0
-5 -9 -3 -20 4 -11 7 -20 16 -20 20 0 5 9 3 20 -4 11 -7 20 -16 20 -20z
m-4166 7 c-10 -8 -23 -14 -29 -14 -5 0 -1 6 9 14 11 8 24 15 30 15 5 0 1 -7
-10 -15z m446 -240 c-85 -85 -159 -155 -164 -155 -5 0 62 72 150 159 87 88
161 157 164 155 2 -3 -65 -74 -150 -159z m3260 5 c140 -141 157 -160 145 -160
-5 0 -305 300 -305 305 0 12 19 -5 160 -145z m-2978 -17 c-22 -31 -62 -70 -62
-60 0 3 11 17 25 31 14 14 25 28 25 31 0 8 24 34 29 30 2 -2 -6 -16 -17 -32z
m2678 29 c0 -5 16 -27 36 -50 19 -23 33 -42 29 -42 -3 0 -18 14 -33 32 -43 51
-54 68 -43 68 6 0 11 -4 11 -8z m-2504 -144 c-18 -26 -22 -17 -5 14 6 11 13
17 16 15 3 -3 -2 -16 -11 -29z m2343 2 c15 -12 61 -80 61 -89 0 -6 4 -11 9
-11 5 0 13 -10 17 -22 4 -13 9 -25 13 -28 14 -11 61 -79 61 -88 0 -6 3 -12 8
-14 10 -4 64 -88 56 -88 -10 0 -43 44 -44 58 0 6 -4 12 -9 12 -5 0 -13 10 -17
23 -4 12 -9 24 -13 27 -15 12 -61 80 -61 89 0 6 -4 11 -9 11 -5 0 -13 10 -17
23 -4 12 -9 24 -13 27 -17 14 -61 80 -60 92 0 9 2 8 6 -2 3 -8 9 -17 12 -20z
m-2375 -54 c-3 -9 -10 -16 -15 -16 -5 0 -9 -5 -9 -11 0 -9 -46 -77 -61 -89 -4
-3 -9 -15 -13 -27 -4 -13 -12 -23 -17 -23 -5 0 -9 -5 -9 -11 0 -11 -50 -82
-62 -87 -5 -2 -8 -11 -9 -20 0 -9 -3 -12 -5 -6 -5 11 73 135 89 142 4 2 7 8 7
14 0 11 51 81 63 86 4 2 7 9 7 16 0 12 32 57 38 52 1 -2 0 -11 -4 -20z m2201
-51 c11 -19 16 -37 12 -41 -4 -4 -7 0 -7 9 0 10 -3 17 -7 17 -5 0 -13 11 -20
25 -17 38 1 30 22 -10z m-1985 1 c0 -3 -4 -8 -10 -11 -5 -3 -10 -1 -10 4 0 6
5 11 10 11 6 0 10 -2 10 -4z m-20 -36 c0 -5 -4 -10 -10 -10 -5 0 -10 -7 -10
-17 0 -9 -3 -14 -6 -10 -8 8 5 47 17 47 5 0 9 -4 9 -10z m215 -19 c3 -5 1 -12
-5 -16 -5 -3 -10 1 -10 9 0 18 6 21 15 7z m1831 -18 c15 -20 18 -33 7 -33 -5
0 -13 11 -20 25 -13 29 -6 33 13 8z m-1846 -29 c0 -8 -5 -12 -10 -9 -6 4 -8
11 -5 16 9 14 15 11 15 -7z m1617 -6 c-3 -8 -6 -5 -6 6 -1 11 2 17 5 13 3 -3
4 -12 1 -19z m-1640 -40 c-3 -8 -6 -5 -6 6 -1 11 2 17 5 13 3 -3 4 -12 1 -19z
m1663 6 c0 -8 -4 -12 -10 -9 -5 3 -10 10 -10 16 0 5 5 9 10 9 6 0 10 -7 10
-16z m-1440 -16 c0 -16 -3 -19 -11 -11 -6 6 -8 16 -5 22 11 17 16 13 16 -11z
m1217 -10 c-3 -7 -5 -2 -5 12 0 14 2 19 5 13 2 -7 2 -19 0 -25z m-1447 -7 c0
-6 -4 -13 -10 -16 -5 -3 -10 -16 -10 -28 0 -14 -3 -18 -10 -11 -7 7 -6 19 2
37 13 26 28 36 28 18z m1685 0 c3 -5 1 -12 -5 -16 -5 -3 -10 1 -10 9 0 18 6
21 15 7z m-1258 -38 c-3 -10 -5 -4 -5 12 0 17 2 24 5 18 2 -7 2 -21 0 -30z
m823 10 c-1 -24 -2 -26 -11 -10 -5 9 -7 22 -4 27 10 17 15 11 15 -17z m-1043
-15 c-3 -7 -5 -2 -5 12 0 14 2 19 5 13 2 -7 2 -19 0 -25z m1263 6 c0 -8 -4
-12 -10 -9 -5 3 -10 10 -10 16 0 5 5 9 10 9 6 0 10 -7 10 -16z m227 -16 c-3
-8 -6 -5 -6 6 -1 11 2 17 5 13 3 -3 4 -12 1 -19z m-1070 -65 c-2 -16 -4 -3 -4
27 0 30 2 43 4 28 2 -16 2 -40 0 -55z m423 31 c0 -27 -4 -43 -10 -39 -11 7
-13 45 -4 69 10 26 14 18 14 -30z m-1093 -6 c-3 -8 -6 -5 -6 6 -1 11 2 17 5
13 3 -3 4 -12 1 -19z m243 8 c0 -8 -4 -18 -10 -21 -5 -3 -10 3 -10 14 0 12 5
21 10 21 6 0 10 -6 10 -14z m1290 -7 c0 -5 -4 -9 -10 -9 -5 0 -10 7 -10 16 0
8 5 12 10 9 6 -3 10 -10 10 -16z m230 5 c0 -8 -4 -12 -10 -9 -5 3 -10 10 -10
16 0 5 5 9 10 9 6 0 10 -7 10 -16z m-1313 -41 c-3 -10 -5 -2 -5 17 0 19 2 27
5 18 2 -10 2 -26 0 -35z m863 16 c0 -10 -4 -19 -10 -19 -5 0 -10 12 -10 26 0
14 4 23 10 19 6 -3 10 -15 10 -26z m-1325 -8 c3 -5 1 -12 -5 -16 -5 -3 -10 1
-10 9 0 18 6 21 15 7z m1795 -12 c0 -5 -4 -9 -10 -9 -5 0 -10 7 -10 16 0 8 5
12 10 9 6 -3 10 -10 10 -16z m-1814 -46 c-10 -10 -19 5 -10 18 6 11 8 11 12 0
2 -7 1 -15 -2 -18z m1821 5 c-3 -8 -6 -5 -6 6 -1 11 2 17 5 13 3 -3 4 -12 1
-19z m-1347 -12 c0 -14 -4 -28 -10 -31 -6 -4 -10 7 -10 24 0 17 5 31 10 31 6
0 10 -11 10 -24z m877 -23 c-3 -10 -5 -2 -5 17 0 19 2 27 5 18 2 -10 2 -26 0
-35z m-1370 -5 c-3 -8 -6 -5 -6 6 -1 11 2 17 5 13 3 -3 4 -12 1 -19z m1863 6
c0 -8 -4 -12 -10 -9 -5 3 -10 10 -10 16 0 5 5 9 10 9 6 0 10 -7 10 -16z
m-1875 -33 c3 -5 1 -12 -5 -16 -5 -3 -10 1 -10 9 0 18 6 21 15 7z m1895 -12
c0 -5 -4 -9 -10 -9 -5 0 -10 7 -10 16 0 8 5 12 10 9 6 -3 10 -10 10 -16z
m-1410 -26 c0 -21 -3 -24 -9 -14 -5 8 -7 20 -4 28 8 21 13 15 13 -14z m917
-10 c-3 -10 -5 -4 -5 12 0 17 2 24 5 18 2 -7 2 -21 0 -30z m-1421 -10 c-10
-10 -19 5 -10 18 6 11 8 11 12 0 2 -7 1 -15 -2 -18z m1921 5 c-3 -8 -6 -5 -6
6 -1 11 2 17 5 13 3 -3 4 -12 1 -19z m-1440 -85 c-3 -10 -5 -2 -5 17 0 19 2
27 5 18 2 -10 2 -26 0 -35z m963 17 c0 -11 -4 -20 -10 -20 -5 0 -10 9 -10 20
0 11 5 20 10 20 6 0 10 -9 10 -20z m-970 -75 c0 -8 -4 -15 -10 -15 -5 0 -10 7
-10 15 0 8 5 15 10 15 6 0 10 -7 10 -15z m990 -6 c0 -5 -4 -9 -10 -9 -5 0 -10
7 -10 16 0 8 5 12 10 9 6 -3 10 -10 10 -16z"/>
<path d="M2500 4080 c0 -5 4 -10 9 -10 6 0 13 5 16 10 3 6 -1 10 -9 10 -9 0
-16 -4 -16 -10z"/>
<path d="M2585 4075 c11 -8 26 -19 33 -25 6 -6 12 -7 12 -3 0 12 -38 43 -53
43 -6 0 -3 -7 8 -15z"/>
<path d="M2643 3985 c0 -51 1 -56 10 -32 6 18 6 41 0 60 -8 28 -9 25 -10 -28z"/>
<path d="M2443 3985 c0 -27 2 -38 4 -22 2 15 2 37 0 50 -2 12 -4 0 -4 -28z"/>
<path d="M2213 3963 c9 -2 25 -2 35 0 9 3 1 5 -18 5 -19 0 -27 -2 -17 -5z"/>
<path d="M2275 3934 c9 -9 19 -13 23 -10 3 4 0 11 -8 16 -24 15 -33 11 -15 -6z"/>
<path d="M2460 3928 c0 -9 5 -20 10 -23 13 -8 13 5 0 25 -8 13 -10 13 -10 -2z"/>
<path d="M2060 3885 c-7 -8 -9 -15 -6 -15 4 0 14 7 22 15 9 8 11 15 6 15 -5 0
-15 -7 -22 -15z"/>
<path d="M2350 3893 c8 -3 21 -10 28 -16 7 -5 15 -7 19 -3 10 9 0 15 -33 20
-16 2 -22 1 -14 -1z"/>
<path d="M2490 3876 c0 -15 -7 -26 -17 -29 -14 -4 -12 -5 5 -6 18 -1 22 4 22
29 0 17 -2 30 -5 30 -3 0 -5 -11 -5 -24z"/>
<path d="M2423 3863 c9 -2 23 -2 30 0 6 3 -1 5 -18 5 -16 0 -22 -2 -12 -5z"/>
<path d="M1878 3773 c7 -3 16 -2 19 1 4 3 -2 6 -13 5 -11 0 -14 -3 -6 -6z"/>
<path d="M2470 3710 c-15 -12 -43 -20 -70 -21 -36 -1 -40 -2 -20 -8 14 -4 41
-4 60 1 49 11 48 11 46 -16 0 -13 -5 -22 -9 -19 -5 3 -21 -6 -35 -20 -15 -14
-43 -27 -62 -30 -33 -4 -33 -4 8 -5 23 -1 42 -6 42 -12 0 -14 37 -12 44 3 3 6
3 1 -1 -13 -7 -30 -61 -80 -85 -80 -10 0 -18 -4 -18 -10 0 -6 -33 -10 -78 -10
-69 0 -81 -3 -100 -23 -34 -36 -28 -63 18 -87 21 -11 51 -20 65 -20 14 0 25
-4 25 -10 0 -5 15 -10 34 -10 19 0 37 -4 40 -9 3 -5 27 -12 53 -16 27 -4 51
-12 54 -17 19 -31 24 19 19 224 l-5 227 -25 -19z m-200 -254 c0 -3 -7 -12 -17
-21 -14 -14 -14 -18 -2 -27 10 -7 8 -8 -8 -3 -12 3 -24 1 -28 -5 -9 -15 -35
-12 -35 4 0 8 9 21 20 29 11 8 17 17 13 20 -3 4 8 7 25 7 18 0 32 -2 32 -4z"/>
<path d="M2257 3663 c18 -2 50 -2 70 0 21 2 7 4 -32 4 -38 0 -55 -2 -38 -4z"/>
<path d="M1895 3650 c-3 -5 1 -10 9 -10 9 0 16 5 16 10 0 6 -4 10 -9 10 -6 0
-13 -4 -16 -10z"/>
<path d="M1940 3650 c0 -5 18 -10 40 -10 22 0 40 5 40 10 0 6 -18 10 -40 10
-22 0 -40 -4 -40 -10z"/>
<path d="M2075 3650 c3 -5 15 -10 26 -10 10 0 19 5 19 10 0 6 -12 10 -26 10
-14 0 -23 -4 -19 -10z"/>
<path d="M2170 3650 c0 -5 9 -10 19 -10 11 0 23 5 26 10 4 6 -5 10 -19 10 -14
0 -26 -4 -26 -10z"/>
<path d="M1833 3633 c9 -2 23 -2 30 0 6 3 -1 5 -18 5 -16 0 -22 -2 -12 -5z"/>
<path d="M2266 3621 c-11 -4 2 -7 35 -8 39 0 47 2 29 8 -32 9 -41 9 -64 0z"/>
<path d="M2195 3579 c-28 -19 -28 -20 -5 -13 14 3 27 10 30 14 3 4 12 10 20
13 13 5 13 6 0 6 -8 1 -28 -8 -45 -20z"/>
<path d="M2280 3560 c0 -5 5 -10 10 -10 6 0 10 5 10 10 0 6 -4 10 -10 10 -5 0
-10 -4 -10 -10z"/>
<path d="M2107 3517 c-9 -12 -17 -26 -17 -32 0 -5 5 -2 11 7 5 10 17 21 26 26
8 5 11 12 7 15 -5 3 -17 -4 -27 -16z"/>
<path d="M2071 3464 c0 -11 3 -14 6 -6 3 7 2 16 -1 19 -3 4 -6 -2 -5 -13z"/>
<path d="M2474 3097 c-67 -78 -60 -172 14 -206 l24 -11 -4 120 c-2 66 -6 120
-9 120 -3 0 -14 -10 -25 -23z"/>
<path d="M2580 3000 c0 -66 4 -120 9 -120 22 0 81 73 81 99 0 45 -56 141 -82
141 -4 0 -8 -54 -8 -120z"/>
<path d="M2459 2691 c-54 -54 -52 -79 11 -144 l51 -52 -3 117 c-2 65 -7 118
-12 118 -4 0 -26 -17 -47 -39z"/>
<path d="M2576 2619 c-4 -61 -5 -113 -3 -115 2 -2 25 17 51 42 66 67 61 120
-15 168 l-26 16 -7 -111z"/>
<path d="M1370 2550 c0 -5 5 -10 10 -10 6 0 10 5 10 10 0 6 -4 10 -10 10 -5 0
-10 -4 -10 -10z"/>
<path d="M1270 2450 c0 -5 5 -10 10 -10 6 0 10 5 10 10 0 6 -4 10 -10 10 -5 0
-10 -4 -10 -10z"/>
<path d="M1170 2350 c0 -5 5 -10 10 -10 6 0 10 5 10 10 0 6 -4 10 -10 10 -5 0
-10 -4 -10 -10z"/>
<path d="M1070 2250 c0 -5 5 -10 11 -10 5 0 7 5 4 10 -3 6 -8 10 -11 10 -2 0
-4 -4 -4 -10z"/>
<path d="M2552 1933 c-18 -33 -15 -43 14 -43 20 0 24 3 16 13 -5 6 -12 21 -14
32 -4 19 -4 19 -16 -2z"/>
<path d="M3374 2039 c-54 -19 -95 -140 -75 -216 12 -44 29 -56 65 -47 47 12
80 116 64 207 -10 59 -20 69 -54 56z"/>
</g>
</svg>
